<?xml version="1.0" encoding="UTF-8"?>
<svg width="512px" height="512px" viewBox="0 0 512 512" version="1.1" xmlns="http://www.w3.org/2000/svg" xmlns:xlink="http://www.w3.org/1999/xlink">
    <title>favicon</title>
    <g id="Page-1" stroke="none" stroke-width="1" fill="none" fill-rule="evenodd">
        <g id="favicon" transform="translate(0, -0)">
            <polygon id="black" fill="#000000" fill-rule="nonzero" points="0 5.68434189e-14 512 5.68434189e-14 512 512 0 512"></polygon>
            <path d="M340.686275,111 C347.636043,111 353.958992,112.792061 359.647299,116.402658 C365.606535,120.185225 370.734203,125.040141 375.039435,130.957613 L464.392299,256.5 L375.039435,382.042387 C370.734203,387.959859 365.606535,392.814775 359.6473,396.597342 C353.958992,400.207939 347.636043,402 340.686275,402 L113.460784,402 C105.905355,402 99.4391018,399.324345 94.0593543,393.979531 C88.6924217,388.647448 86,382.240075 86,374.75 L86,138.25 C86,130.759925 88.6924217,124.352552 94.0593543,119.020469 C99.4391018,113.675655 105.905355,111 113.460784,111 Z" id="Goldlabel" stroke="#FFFFFF" stroke-width="10" fill="#C09F52"></path>
        </g>
    </g>
</svg>