<?xml version="1.0" encoding="UTF-8"?>
<svg width="512px" height="512px" viewBox="0 0 512 512" version="1.1" xmlns="http://www.w3.org/2000/svg" xmlns:xlink="http://www.w3.org/1999/xlink">
    <title>favicon</title>
    <g id="favicon" stroke="none" stroke-width="1" fill="none" fill-rule="evenodd">
        <path d="M440.009772,257 L361.091115,367.964285 C357.044004,373.535715 352.218603,378.101191 346.614911,381.660715 C341.01122,385.220238 334.784896,387 327.935939,387 L131.806732,387 C124.101656,387 117.505644,384.272321 112.018696,378.816964 C106.531748,373.361607 103.788274,366.803572 103.788274,359.142857 L103.788274,154.857143 C103.788274,147.196428 106.531748,140.638393 112.018696,135.183036 C117.505644,129.727679 124.101656,127 131.806732,127 L327.935939,127 C334.784896,127 341.01122,128.779762 346.614911,132.339285 C352.218603,135.898809 357.044004,140.464285 361.091115,146.035715 L440.009772,257 Z" id="goldlabel" stroke="#C09F52" stroke-width="10" fill="#FFFFFF" fill-rule="nonzero"></path>
    </g>
</svg>