<?xml version="1.0" encoding="UTF-8"?>
<svg width="512px" height="512px" viewBox="0 0 512 512" version="1.1" xmlns="http://www.w3.org/2000/svg" xmlns:xlink="http://www.w3.org/1999/xlink">
    <title>favicon</title>
    <defs>
        <linearGradient x1="50%" y1="0%" x2="50%" y2="100%" id="linearGradient-1">
            <stop stop-color="#001321" offset="0%"></stop>
            <stop stop-color="#000000" offset="100%"></stop>
        </linearGradient>
    </defs>
    <g id="favicon" stroke="none" fill="none">
        <path d="M146.141456,-7.25467311e-15 L365.858544,7.25467311e-15 C416.675112,-4.215174e-15 435.102427,5.29105984 453.680205,15.2265641 C472.257983,25.1620684 486.837932,39.7420171 496.773436,58.3197949 C506.70894,76.8975727 512,95.3248882 512,146.141456 L512,365.858544 C512,416.675112 506.70894,435.102427 496.773436,453.680205 C486.837932,472.257983 472.257983,486.837932 453.680205,496.773436 C435.102427,506.70894 416.675112,512 365.858544,512 L146.141456,512 C95.3248882,512 76.8975727,506.70894 58.3197949,496.773436 C39.7420171,486.837932 25.1620684,472.257983 15.2265641,453.680205 C5.29105984,435.102427 0,416.675112 0,365.858544 L7.25467311e-15,146.141456 C-4.215174e-15,95.3248882 5.29105984,76.8975727 15.2265641,58.3197949 C25.1620684,39.7420171 39.7420171,25.1620684 58.3197949,15.2265641 C76.8975727,5.29105984 95.3248882,4.215174e-15 146.141456,-7.25467311e-15 Z" id="bg" fill="url(#linearGradient-1)" fill-rule="evenodd"></path>
        <path d="M258.525253,461 C232.779461,461 208.603535,455.09375 185.997475,443.28125 C163.391414,431.46875 144.867003,415.01 130.424242,393.905 L40,260.66 L48.9482323,251.6825 C55.2276936,245.0675 62.9985269,241.2875 72.2607323,240.3425 C81.5229377,239.3975 89.9217172,241.6025 97.4570707,246.9575 L149.262626,282.8675 L149.262626,101.9 C149.262626,96.545 151.067971,92.05625 154.678662,88.43375 C158.289352,84.81125 162.763468,83 168.10101,83 C173.438552,83 177.912668,84.81125 181.523359,88.43375 C185.134049,92.05625 186.939394,96.545 186.939394,101.9 L186.939394,355.6325 L117.237374,306.965 L161.978535,372.17 C172.967593,388.235 186.939394,400.75625 203.893939,409.73375 C220.848485,418.71125 239.058923,423.2 258.525253,423.2 C290.864478,423.2 318.415614,411.78125 341.178662,388.94375 C363.941709,366.10625 375.323232,338.465 375.323232,306.02 L375.323232,120.8 C375.323232,115.445 377.128577,110.95625 380.739268,107.33375 C384.349958,103.71125 388.824074,101.9 394.161616,101.9 C399.499158,101.9 403.973274,103.71125 407.583965,107.33375 C411.194655,110.95625 413,115.445 413,120.8 L413,306.02 C413,349.175 398.007786,385.79375 368.023359,415.87625 C338.038931,445.95875 301.539562,461 258.525253,461 Z M226,254 L226,64.9090909 C226,59.5515152 227.772917,55.0606061 231.31875,51.4363636 C234.864583,47.8121212 239.258333,46 244.5,46 C249.741667,46 254.135417,47.8121212 257.68125,51.4363636 C261.227083,55.0606061 263,59.5515152 263,64.9090909 L263,254 L226,254 Z M299,253 L299,82.9 C299,77.545 300.772917,73.05625 304.31875,69.43375 C307.864583,65.81125 312.258333,64 317.5,64 C322.741667,64 327.135417,65.81125 330.68125,69.43375 C334.227083,73.05625 336,77.545 336,82.9 L336,253 L299,253 Z" id="hand" fill="#FFFFFF" fill-rule="nonzero"></path>
    </g>
</svg>