<?xml version="1.0" encoding="UTF-8"?>
<svg width="512px" height="512px" viewBox="0 0 512 512" version="1.1" xmlns="http://www.w3.org/2000/svg" xmlns:xlink="http://www.w3.org/1999/xlink">
    <title>favicon</title>
    <defs>
        <linearGradient x1="50%" y1="0%" x2="50%" y2="100%" id="linearGradient-1">
            <stop stop-color="#001321" offset="0%"></stop>
            <stop stop-color="#000000" offset="100%"></stop>
        </linearGradient>
    </defs>
    <g id="favicon" stroke="none" fill="none" fill-rule="evenodd">
        <path d="M146.141456,-7.25467311e-15 L365.858544,7.25467311e-15 C416.675112,-4.215174e-15 435.102427,5.29105984 453.680205,15.2265641 C472.257983,25.1620684 486.837932,39.7420171 496.773436,58.3197949 C506.70894,76.8975727 512,95.3248882 512,146.141456 L512,365.858544 C512,416.675112 506.70894,435.102427 496.773436,453.680205 C486.837932,472.257983 472.257983,486.837932 453.680205,496.773436 C435.102427,506.70894 416.675112,512 365.858544,512 L146.141456,512 C95.3248882,512 76.8975727,506.70894 58.3197949,496.773436 C39.7420171,486.837932 25.1620684,472.257983 15.2265641,453.680205 C5.29105984,435.102427 0,416.675112 0,365.858544 L7.25467311e-15,146.141456 C-4.215174e-15,95.3248882 5.29105984,76.8975727 15.2265641,58.3197949 C25.1620684,39.7420171 39.7420171,25.1620684 58.3197949,15.2265641 C76.8975727,5.29105984 95.3248882,4.215174e-15 146.141456,-7.25467311e-15 Z" id="bg" fill="url(#linearGradient-1)"></path>
        <path d="M451,255.5 L367.438889,372.866071 C363.153703,378.758929 358.044444,383.587798 352.111111,387.352679 C346.177778,391.117559 339.585185,393 332.333333,393 L124.666667,393 C116.508334,393 109.524306,390.114955 103.714583,384.344866 C97.9048611,378.574776 95,371.638394 95,363.535715 L95,147.464285 C95,139.361606 97.9048611,132.425224 103.714583,126.655134 C109.524306,120.885045 116.508334,118 124.666667,118 L332.333333,118 C339.585185,118 346.177778,119.882441 352.111111,123.647321 C358.044444,127.412202 363.153703,132.241071 367.438889,138.133929 L451,255.5 Z" id="Path-Copy" fill="#FFFFFF"></path>
    </g>
</svg>