<?xml version="1.0" encoding="UTF-8"?>
<svg width="512px" height="513px" viewBox="0 0 512 513" version="1.1" xmlns="http://www.w3.org/2000/svg" xmlns:xlink="http://www.w3.org/1999/xlink">
    <title>favicon</title>
    <defs>
        <path d="M146.141456,-7.25467311e-15 L365.858544,7.25467311e-15 C416.675112,-4.215174e-15 435.102427,5.29105984 453.680205,15.2265641 C472.257983,25.1620684 486.837932,39.7420171 496.773436,58.3197949 C506.70894,76.8975727 512,95.3248882 512,146.141456 L512,365.858544 C512,416.675112 506.70894,435.102427 496.773436,453.680205 C486.837932,472.257983 472.257983,486.837932 453.680205,496.773436 C435.102427,506.70894 416.675112,512 365.858544,512 L146.141456,512 C95.3248882,512 76.8975727,506.70894 58.3197949,496.773436 C39.7420171,486.837932 25.1620684,472.257983 15.2265641,453.680205 C5.29105984,435.102427 0,416.675112 0,365.858544 L7.25467311e-15,146.141456 C-4.215174e-15,95.3248882 5.29105984,76.8975727 15.2265641,58.3197949 C25.1620684,39.7420171 39.7420171,25.1620684 58.3197949,15.2265641 C76.8975727,5.29105984 95.3248882,4.215174e-15 146.141456,-7.25467311e-15 Z" id="path-1"></path>
    </defs>
    <g id="favicon" stroke="none" fill="none" fill-rule="evenodd">
        <g id="bg">
            <use fill="#854D4D" xlink:href="#path-1"></use>
            <use fill="#303030" xlink:href="#path-1"></use>
        </g>
        <g id="mc_blokey" stroke-width="1" transform="translate(122, 89)" fill="#A6D4D1">
            <path d="M222.392421,113.9515 C215.0978,106.678 202.566015,93.25 178.250611,93.25 C174.322738,93.25 151.690709,93.25 130.742054,93.25 C79.3056235,93.0635 37.408313,51.2875 37.408313,0 L0,0 C0,58.934 39.4657702,108.916 93.5207824,125.1415 L93.5207824,373 L130.929095,373 L130.929095,261.1 L168.337408,261.1 L168.337408,373 L205.745721,373 L205.745721,150.1325 L279.627139,223.8 L306,197.5035 L222.392421,113.9515 Z" id="body" fill-rule="nonzero"></path>
            <circle id="head" fill-rule="nonzero" cx="150.5" cy="37.5" r="37.5"></circle>
        </g>
    </g>
</svg>