<?xml version="1.0" encoding="UTF-8"?>
<svg width="512px" height="512px" viewBox="0 0 512 512" version="1.1" xmlns="http://www.w3.org/2000/svg" xmlns:xlink="http://www.w3.org/1999/xlink">
    <title>favicon</title>
    <g id="GoldlabelCore" stroke="none" stroke-width="1" fill="none" fill-rule="evenodd">
        <g id="goldlabel_icon" transform="translate(0, -0)" fill="#FFFFFF">
            <path d="M388.294118,256 L331.795098,335.382143 C328.897712,339.367857 325.443137,342.633929 321.431373,345.180357 C317.419608,347.726786 312.962092,349 308.058824,349 L167.647059,349 C162.130883,349 157.408701,347.048661 153.480515,343.145982 C149.552328,339.243303 147.588235,334.551786 147.588235,329.071429 L147.588235,182.928571 C147.588235,177.448214 149.552328,172.756697 153.480515,168.854018 C157.408701,164.951339 162.130883,163 167.647059,163 L308.058824,163 C312.962092,163 317.419608,164.273214 321.431373,166.819643 C325.443137,169.366071 328.897712,172.632143 331.795098,176.617857 L388.294118,256 Z" id="Goldlabel"></path>
        </g>
    </g>
</svg>