<?xml version="1.0" encoding="UTF-8"?>
<svg width="512px" height="512px" viewBox="0 0 512 512" version="1.1" xmlns="http://www.w3.org/2000/svg" xmlns:xlink="http://www.w3.org/1999/xlink">
    <title>favicon</title>
    <g id="Page-1" stroke="none" stroke-width="1" fill="none" fill-rule="evenodd">
        <g id="face" fill="#126A71" fill-rule="nonzero">
            <path d="M272.85129,454.531 C278.68059,452.7115 283.40339,450.1322 288.74879,445.8497 C300.73139,436.2488 309.03329,425.0405 340.02719,376.62099 C363.32879,340.21889 372.07319,323.94849 378.57559,304.89639 C381.56949,296.12389 385.00339,281.03389 385.00339,276.64709 C385.00339,274.88829 384.81609,274.51459 384.01119,274.66829 C382.57279,274.94159 379.56009,279.72919 378.47279,283.46969 C377.30739,287.47829 372.99259,298.33169 368.77729,307.85719 C363.35619,320.10819 353.87399,336.16039 339.37849,357.62669 C311.73889,398.5585 312.55889,397.4217 311.07459,396.8525 C310.28989,396.5514 310.28319,396.2599 311.01459,394.18869 C312.02619,391.32139 316.52599,383.63299 322.45819,374.63649 C324.92559,370.89439 328.55959,364.79129 330.53369,361.07459 C332.50779,357.35739 335.36529,352.41319 336.88369,350.08689 C338.80469,347.14419 339.64449,345.27649 339.64449,343.94629 C339.64449,342.89459 339.36669,342.03439 339.02719,342.03439 C338.68769,342.03439 337.09739,343.18259 335.49329,344.58589 C332.85059,346.89749 330.52519,348.02359 331.43579,346.54999 C331.63549,346.22679 335.89659,341.31549 340.90489,335.63529 C355.21339,319.40859 359.84879,312.61659 362.65879,303.76239 C364.25949,298.71899 365.18869,289.87109 364.11769,289.87109 C362.80029,289.87109 358.41989,296.42779 350.99019,309.52079 C346.78349,316.93359 342.42429,324.15659 341.30309,325.57119 C329.87149,339.99549 308.53569,350.02679 285.21309,351.94319 C282.87429,352.13539 277.53549,352.94509 273.34929,353.74169 C265.87959,355.16429 265.54169,355.17849 255.20549,354.52579 C243.10779,353.76149 237.36379,352.76249 235.61299,351.11769 C234.57509,350.14239 233.63029,349.97229 229.24859,349.97229 C222.97499,349.97229 217.07899,348.89959 208.58879,346.21369 C193.85959,341.55359 181.78929,335.37789 172.71839,327.86069 C165.75279,322.08819 163.25379,318.50529 155.13929,302.65499 C149.67259,291.97629 146.68649,287.03609 145.69889,287.03609 C144.09579,287.03609 147.94389,299.69419 151.69259,306.75329 C157.56999,317.81929 163.39129,325.04729 178.18729,339.64909 C199.30319,360.48719 203.63249,363.58069 218.71739,368.60879 C231.43879,372.84939 238.36879,373.78489 257.06509,373.78549 C268.88249,373.78549 268.89119,373.78549 270.59169,375.21829 C271.96389,376.37269 272.66579,376.58019 274.21729,376.28869 C275.46209,376.05509 276.14119,376.14929 276.14119,376.55469 C276.14119,376.89939 274.57289,379.28809 272.65599,381.86289 C267.82769,388.34699 266.81199,390.74759 266.83649,395.6153 C266.85249,398.8681 267.25959,400.6076 269.08919,405.2542 C271.31539,410.9076 271.32159,410.9462 271.26289,418.5785 C271.20789,425.747 271.03919,426.8628 268.60999,436.1553 C264.90899,450.3131 264.46219,456 267.05089,456 C267.65249,456 270.26289,455.3389 272.85179,454.531 L272.85129,454.531 Z M241.71529,450.8971 C241.64829,448.8701 240.54599,443.0017 239.26649,437.8563 C235.46849,422.5837 234.67169,416.1126 235.92149,410.6911 C236.23859,409.3155 237.76319,405.4673 239.30959,402.1397 C241.84429,396.6852 242.11879,395.7032 242.099618,392.16679 C242.07059,387.65699 240.91239,384.00379 238.37989,380.43859 C236.28749,377.49359 234.38949,376.51719 227.04069,374.60819 C223.99409,373.81669 218.55029,371.92179 214.94319,370.39709 C211.33619,368.87299 206.52239,367.04389 204.24579,366.33229 C199.26589,364.77709 198.02489,365.17569 198.44279,368.19549 C198.72349,370.22479 198.71119,375.18759 198.40679,382.57439 C198.24739,386.44809 198.48579,387.93539 200.04219,392.75759 C201.87969,398.4531 202.25039,401.216 201.36469,402.6131 C200.04989,404.6877 196.79119,400.145 193.09109,391.07929 C190.29029,384.21759 181.69289,367.59219 175.20019,356.48309 C170.06799,347.70209 160.83699,332.99199 148.34299,313.68479 C141.30559,302.80979 137.12209,294.88159 133.47841,285.51369 C129.02131,274.05479 124.46081,266.62429 121.88491,266.62429 C119.84191,266.62429 120.04271,268.99489 122.80211,277.45279 C132.03421,305.74909 145.84459,333.08559 174.04789,378.88899 C185.21949,397.0322 188.91799,402.5025 193.46179,407.6021 C195.36779,409.7408 200.89519,417.487 205.74479,424.8154 C212.94489,435.6955 215.55589,439.1388 219.97849,443.5863 C222.95729,446.5817 226.60819,449.7325 228.09149,450.5881 C231.83149,452.7449 238.09729,454.8972 240.13629,454.726 L241.83729,454.5826 L241.71499,450.8971 L241.71529,450.8971 Z M257.09979,417.5999 C257.04979,415.0467 255.91179,413.0662 255.01209,413.966 C254.70379,414.2739 254.64539,415.7498 254.87539,417.4224 C255.19069,419.7147 255.47739,420.2999 256.21169,420.1508 C256.90969,420.009 257.13469,419.3632 257.09979,417.5999 L257.09979,417.5999 Z M270.467098,349.26359 C270.467098,348.87409 269.96019,347.78939 269.34519,346.85389 C267.82359,344.53939 257.60699,333.55619 255.20869,331.65669 C253.35279,330.18649 253.20899,330.16099 251.80669,331.04609 C250.11079,332.11659 250.35079,331.84839 243.03169,340.86019 C239.19719,345.58209 237.60589,347.95209 238.00349,348.34959 C238.58399,348.93019 252.01069,349.72059 264.09209,349.88559 C268.86519,349.95059 270.46989,349.79459 270.467098,349.26359 L270.467098,349.26359 Z M303.09499,327.61299 C319.30359,323.68649 327.93349,318.34769 337.14749,306.54799 C341.46259,301.02149 345.88089,293.98119 345.88089,292.63119 C345.88089,291.56469 345.30719,291.46149 333.69349,290.42839 C322.00059,289.38799 316.68069,287.61269 316.68069,284.74999 C316.68069,283.37899 316.75969,283.35399 320.64969,283.52699 C322.83259,283.62399 327.72199,284.07069 331.51509,284.51919 C340.65849,285.60099 344.13089,285.55109 354.32469,284.19089 C363.51309,282.96509 367.04389,281.86959 371.61909,278.82489 C375.94779,275.94399 385.57059,267.18509 388.21489,263.71849 C391.15709,259.86179 391.94059,258.27819 393.50959,253.01649 C394.64629,249.20519 394.80669,247.16799 395.05769,233.36229 L395.33779,217.96039 L392.01329,217.59129 C390.18489,217.38839 385.65889,216.72839 381.95559,216.12509 C373.77239,214.79209 371.92509,214.77169 368.27709,215.97649 C365.88499,216.76689 361.19049,216.98069 338.22649,217.34529 C323.25789,217.58279 308.84209,217.95359 306.19139,218.16969 C299.50419,218.71339 297.19339,217.98769 293.05999,214.04479 C291.23869,212.30809 289.74859,210.58609 289.74859,210.21929 C289.74859,208.73769 293.26309,204.43199 295.81739,202.78489 C302.62969,198.39069 312.49649,192.77969 315.30099,191.70409 C322.91569,188.78409 336.28359,188.08049 345.88089,190.09439 C355.54459,192.12199 364.52009,197.27539 368.84389,203.27869 C371.62999,207.14679 372.13699,207.47109 377.00179,208.49449 C379.14179,208.94469 381.75379,209.81109 382.80629,210.42059 C385.08609,211.73999 391.93569,213.89399 393.85159,213.89399 C395.19799,213.89399 395.20929,213.84299 395.20929,207.91899 C395.20929,201.12249 394.35169,178.99159 393.48539,163.43159 C391.72339,131.78369 386.92689,107.54989 379.53999,92.97249 C371.85619,77.80939 354.97429,68.82819 321.78369,62.24659 C296.86969,57.30629 272.11579,55.25039 249.49199,56.24319 C195.30339,58.62009 160.17929,66.79549 143.54659,80.90179 C134.69039,88.41329 129.42391,99.59379 125.10341,120.05659 C119.46201,146.77559 117.46771,168.17329 116.99161,207.09009 L116.66221,234.02219 L118.49741,239.40869 C123.00611,252.64289 131.00061,266.25639 138.14679,272.86979 C142.08299,276.51209 148.34409,280.11199 151.92509,280.79069 C156.33049,281.62639 169.73589,281.47499 178.90139,280.48679 C183.26729,280.01559 189.45459,279.47409 192.65099,279.28299 C198.30409,278.94509 198.46269,278.96829 198.46269,280.13809 C198.46269,281.87419 196.61439,282.80059 190.52479,284.11779 C178.16199,286.79169 175.50199,287.15229 168.57459,287.09449 C160.26349,287.02449 160.06409,287.19349 162.76319,291.99049 C167.41279,300.25499 173.41269,307.11219 179.77469,311.43269 C187.05609,316.37679 204.37289,323.77499 211.61929,325.03709 C216.40469,325.87059 220.23319,324.86759 224.08059,321.77349 C227.95479,318.65729 229.30989,316.69719 229.24309,314.30619 C229.19609,312.61709 228.69549,311.81599 226.32409,309.63419 C224.75009,308.18609 223.31139,306.39999 223.12719,305.66519 C222.94289,304.93039 223.18519,301.90549 223.66599,298.94289 C225.15659,289.75429 224.49829,283.38809 222.09479,283.74919 C221.47879,283.84219 220.69349,284.42789 220.34979,285.05159 C220.00609,285.67529 218.90439,287.35639 217.90149,288.78699 C215.04729,292.85849 213.77149,296.35749 213.77149,300.11319 C213.77149,303.21809 213.66869,303.48339 212.33739,303.81739 C211.29299,304.07929 210.28739,303.75039 208.63639,302.60629 C204.07489,299.44529 201.29419,293.88029 201.30079,287.92569 C201.31079,281.56969 203.73619,277.91489 210.36809,274.27989 C215.13189,271.66829 218.39879,268.24139 219.72299,264.46689 C220.86929,261.19929 223.74589,245.03319 224.88799,235.43969 C225.41149,231.04319 225.76189,222.53269 225.81109,213.02419 L225.89009,197.69609 L221.38999,188.99159 C217.36089,181.19829 216.50969,179.95379 213.25959,177.10409 C211.26309,175.35319 206.67039,171.28439 203.05379,168.06219 C191.78819,158.02419 186.69479,154.94599 178.42189,153.17469 C170.41519,151.46069 166.71089,149.66219 166.71089,147.48829 C166.71089,145.39779 170.15579,144.52969 176.91669,144.91589 C190.39189,145.68529 198.44269,149.97629 217.31369,166.44739 C230.89309,178.29979 234.01349,182.12359 237.98709,191.78119 C238.94939,194.12009 240.26069,198.20239 240.90129,200.85309 C243.17869,210.27829 243.35839,214.79039 242.71629,246.41899 C242.38379,262.79539 241.99649,276.52909 241.85559,276.93739 C240.82509,279.92769 237.56519,304.22959 237.53649,309.13689 C237.50449,314.69119 237.57149,315.02569 239.01719,316.53499 C242.74809,320.42969 251.99889,322.76799 259.23349,321.64529 C263.70429,320.95189 265.73579,320.06339 269.12389,317.31979 C270.41029,316.27819 272.16109,315.10789 273.01469,314.71899 C274.74779,313.92909 273.78919,313.11549 281.90929,322.27299 C287.96489,329.10299 292.36649,330.21259 303.09479,327.61299 L303.09499,327.61299 Z M296.60719,293.98179 C295.75529,289.97309 293.10199,284.31909 291.26079,282.58919 C290.50649,281.88039 288.56749,280.95229 286.95199,280.52589 C285.33639,280.09949 283.64639,279.44519 283.19619,279.07149 C281.15249,277.37569 283.29519,272.96669 285.85109,273.60799 C288.18739,274.19429 293.94269,278.21989 295.80309,280.56899 C300.27009,286.20939 301.80159,292.64189 299.40169,295.68269 C298.72489,296.54059 297.97509,297.24199 297.73559,297.24199 C297.49599,297.24199 296.98819,295.77519 296.60719,293.98179 L296.60719,293.98179 Z M130.99051,226.60649 C130.99051,225.80199 131.66541,223.45689 132.49021,221.39529 C133.98409,217.66109 133.98599,217.63669 132.98241,215.06139 C132.42841,213.63999 131.85461,211.79209 131.70741,210.95519 C131.41871,209.31319 130.91611,209.56209 138.49459,207.59919 C139.90829,207.23349 141.13339,206.35129 142.17999,204.94509 C144.91999,201.26529 149.33109,197.17959 152.55539,195.33459 C160.60789,190.72719 172.12279,188.62759 184.28779,189.54789 C191.47409,190.09099 195.79339,191.38039 203.28209,195.21669 C216.02529,201.74439 221.28209,205.51549 222.09109,208.70939 C222.87539,211.80569 219.00949,216.11659 214.13239,217.58449 C210.33749,218.72649 200.98479,219.45899 177.59269,220.44609 C165.95839,220.93719 154.47679,221.67429 152.07799,222.08419 C143.45419,223.55889 134.68609,225.86659 133.50541,226.97279 C131.89791,228.47819 130.99051,228.34609 130.99051,226.60649 L130.99051,226.60649 Z M277.08569,195.37259 C276.33579,194.62239 276.72179,188.86289 277.64169,187.07579 C281.57859,179.42649 289.08529,171.18579 301.37189,161.02579 C315.57559,149.28059 325.79269,144.72079 337.90829,144.72079 C342.94659,144.72079 345.31389,145.54179 345.31389,147.28929 C345.31389,149.62359 341.76749,151.43059 331.95089,154.09659 C324.97279,155.99209 323.32989,156.81929 317.73619,161.25489 C305.71159,170.78949 286.76449,188.27099 281.66889,194.53119 C280.71619,195.70139 277.92699,196.21339 277.08569,195.37259 L277.08569,195.37259 Z M226.31969,170.65279 C224.95719,169.95539 220.75149,166.48369 216.97349,162.93769 C208.79249,155.25839 205.44339,152.90199 197.09719,148.94999 C185.17969,143.30789 177.66719,141.59209 166.77169,142.02529 C155.43249,142.47669 150.02859,144.92439 141.20769,153.60559 C138.25149,156.51539 135.63619,158.89559 135.39609,158.89559 C133.81839,158.89559 136.98159,152.64279 141.28169,147.26089 C147.11469,139.96089 156.69279,133.63039 165.29359,131.39019 C171.66079,129.73229 180.25669,129.13759 187.27749,129.86959 C203.88399,131.60059 217.79119,137.83299 229.24909,148.67899 C236.26799,155.32239 238.56859,160.50869 237.03069,166.22059 C235.58319,171.59569 231.47969,173.29389 226.31969,170.65279 L226.31969,170.65279 Z M278.47349,171.01109 C275.16519,168.69379 274.00649,161.57809 276.18339,156.94689 C277.66029,153.80519 286.34129,145.35019 291.80329,141.73329 C310.05289,129.65009 329.20759,125.69709 346.10089,130.52779 C355.66679,133.26359 366.00139,140.50299 372.29699,148.87799 C375.15339,152.67739 377.80549,157.52639 377.51099,158.40969 C377.40869,158.71649 374.66939,156.53519 371.42379,153.56249 C361.22369,144.21899 354.12369,141.55299 340.77789,142.05649 C324.88799,142.65529 313.90139,147.76899 294.28449,163.69519 C283.75939,172.24099 281.63349,173.22409 278.47349,171.01109 L278.47349,171.01109 Z" id="path8-6"></path>
        </g>
    </g>
</svg>