<?xml version="1.0" encoding="UTF-8"?>
<svg width="250px" height="250px" viewBox="0 0 250 250" version="1.1" xmlns="http://www.w3.org/2000/svg" xmlns:xlink="http://www.w3.org/1999/xlink">
    <title>rehydrate-ad</title>
    <g id="Page-1" stroke="none" stroke-width="1" fill="none" fill-rule="evenodd">
        <g id="rehydrate-ad">
            <rect id="bg" fill="#EFEFEF" opacity="0" x="0" y="0" width="250" height="250"></rect>
            <g id="redux-logo-svgrepo-com" transform="translate(84, 86)" fill="#C4C4C4" fill-rule="nonzero">
                <path d="M57.6983722,55.5012278 C60.7712862,55.1820273 63.1025632,52.5239812 62.9965222,49.3339343 C62.8908064,46.1442137 60.2414061,43.5922415 57.062451,43.5922415 L56.8506942,43.5922415 C53.5653728,43.6986416 51.0223388,46.4630879 51.1283799,49.7592086 C51.234421,51.3542321 51.8700168,52.7364552 52.8237359,53.693404 C49.2209418,60.8176463 43.7107097,66.0276647 35.4453614,70.3871344 C29.8290882,73.364381 24.0010581,74.4277299 18.1730281,73.6835815 C13.4044328,73.0455068 9.6955977,70.9191352 7.36399534,67.4098878 C3.97328342,62.1998694 3.6554855,56.5642504 6.51664264,50.9289578 C8.5301218,46.8883622 11.7087516,43.9111156 13.7222307,42.4224923 C13.2983918,41.0402692 12.6624706,38.7010973 12.3446727,37 C-3.02054783,48.1645115 -1.43090766,63.2632184 3.23164651,70.3871344 C6.7283995,75.7038793 13.8282718,79 21.6697811,79 C23.788976,79 25.908171,78.7871997 28.0276912,78.2558515 C41.5915147,75.5974791 51.8703421,67.516288 57.6983722,55.5012278 Z" id="Path"></path>
                <path d="M76.1074401,41.8724693 C68.0891787,32.4042926 56.2731003,27.1916523 42.7687794,27.1916523 L41.0808608,27.1916523 C40.1313255,25.2767915 38.1266792,24 35.911205,24 L35.7000533,24 C32.4297918,24.1064537 29.8979138,26.8722912 30.0031658,30.1703972 C30.1087417,33.361723 32.7461956,35.9149795 35.911205,35.9149795 L36.1220329,35.9149795 C38.443083,35.8085258 40.4477293,34.3191534 41.2916887,32.2978389 L43.1907591,32.2978389 C51.2090205,32.2978389 58.8049783,34.638188 65.6628766,39.212759 C70.9377843,42.7234459 74.7359252,47.298017 76.8458235,52.8296919 C78.6393181,57.2978092 78.5337422,61.6594728 76.6346718,65.3830671 C73.6808141,71.0211957 68.7223101,74.1063943 62.1811395,74.1063943 C57.961019,74.1063943 53.9520502,72.8296028 51.841828,71.8721724 C50.6814649,72.9360565 48.5712427,74.6380099 47.094152,75.7022205 C51.6310001,77.8296622 56.2731003,79 60.7040487,79 C70.8322085,79 78.3229143,73.3615449 81.1715199,67.7234163 C84.2309535,61.5530191 84.0198017,50.9148311 76.1074401,41.8724693 L76.1074401,41.8724693 Z" id="Path"></path>
                <path d="M22.8514861,57.2534247 C22.9569366,60.4461843 25.5912593,63 28.7525112,63 L28.9634123,63 C32.2301148,62.893836 34.7589869,60.1267124 34.6535364,56.8277888 C34.5484093,53.6350292 31.9137632,51.0812135 28.7525112,51.0812135 L28.5419336,51.0812135 C28.3310326,51.0812135 28.0146809,51.0812135 27.8044268,51.1873775 C23.4838659,43.9509131 21.6925006,36.0761581 22.3248803,27.5624592 C22.7460356,21.1772666 24.8537525,15.643346 28.5419336,11.0671879 C31.597735,7.12964711 37.4987601,5.21412201 41.5032929,5.10795802 C52.6729634,4.89497672 57.4146795,18.9422696 57.7310312,24.5826809 C59.1009178,24.9018262 61.4192123,25.6469341 63,26.1790607 C61.7352405,8.93933486 51.1976263,0 41.0818142,0 C31.597735,0 22.8514861,6.91731912 19.3738826,17.1335618 C14.5267159,30.7552188 17.6879678,43.8447491 23.588993,54.1674824 C23.0623872,54.9122637 22.7460356,56.0830075 22.8514861,57.2537514 L22.8514861,57.2534247 Z" id="Path"></path>
            </g>
        </g>
    </g>
</svg>