<?xml version="1.0" encoding="UTF-8"?>
<svg width="250px" height="250px" viewBox="0 0 250 250" version="1.1" xmlns="http://www.w3.org/2000/svg" xmlns:xlink="http://www.w3.org/1999/xlink">
    <title>rehydrate-ad</title>
    <g id="Page-1" stroke="none" stroke-width="1" fill="none" fill-rule="evenodd">
        <g id="rehydrate-ad" fill-rule="nonzero">
            <g id="mc_timemachine" transform="translate(124.8524, 124.9769) rotate(15) translate(-124.8524, -124.9769)translate(40.8524, 29.4871)">
                <g id="controls" transform="translate(98.1032, 91.9152) rotate(-17) translate(-98.1032, -91.9152)translate(63.3328, 78.9052)">
                    <g id="buttons" transform="translate(46.2368, 17.5804)">
                        <polygon id="Fill-120" fill="#FFFFFE" points="-1.94525379e-12 1.43801214 1.44161767 1.43801214 1.44161767 1.50802569e-12 -1.94525379e-12 1.50802569e-12"></polygon>
                        <polygon id="Fill-121" fill="#F4E92A" points="2.69887216 1.43801214 4.13792924 1.43801214 4.13792924 8.26918778e-12 2.69887216 8.26918778e-12"></polygon>
                        <polygon id="Fill-122" fill="#FFFFFE" points="5.39518373 1.43801214 6.8368014 1.43801214 6.8368014 1.2834824e-12 5.39518373 1.2834824e-12"></polygon>
                        <polygon id="Fill-123" fill="#F4E92A" points="8.09405589 1.43801214 9.53311297 1.43801214 9.53311297 4.40666568e-12 8.09405589 4.40666568e-12"></polygon>
                        <polygon id="Fill-124" fill="#F4E92A" points="10.7903675 1.43801214 12.2319851 1.43801214 12.2319851 4.6924856e-12 10.7903675 4.6924856e-12"></polygon>
                        <polygon id="Fill-125" fill="#FFFFFE" points="13.4892396 1.43801214 14.9282967 1.43801214 14.9282967 5.44143581e-13 13.4892396 5.44143581e-13"></polygon>
                        <polygon id="Fill-126" fill="#FFFFFE" points="16.1881118 1.43801214 17.6271689 1.43801214 17.6271689 7.30530566e-12 16.1881118 7.30530566e-12"></polygon>
                        <polygon id="Fill-127" fill="#F4E92A" points="18.8844234 1.43801214 20.326041 1.43801214 20.326041 3.95536294e-12 18.8844234 3.95536294e-12"></polygon>
                    </g>
                    <g id="levers" transform="translate(6.0456, 0)" fill="#0A0B09">
                        <path d="M57.42145,9.725434 C57.42145,8.78414321 56.6558307,8.02129375 55.7135299,8.02129375 C54.7712292,8.02129375 54.0081705,8.78414321 54.0081705,9.725434 C54.0081705,10.4885391 54.510048,11.1343024 55.20141,11.351602 L55.20141,18.9287117 L56.2256499,18.9287117 L56.2256499,11.351602 C56.9195724,11.1343024 57.42145,10.4885391 57.42145,9.725434" id="Fill-88"></path>
                        <path d="M51.2119955,9.725434 C51.2119955,8.78414321 50.4463762,8.02129375 49.5040755,8.02129375 C48.5617748,8.02129375 47.798716,8.78414321 47.798716,9.725434 C47.798716,10.4885391 48.3005936,11.1343024 48.9919555,11.351602 L48.9919555,18.9287117 L50.0161954,18.9287117 L50.0161954,11.351602 C50.710118,11.1343024 51.2119955,10.4885391 51.2119955,9.725434" id="Fill-89"></path>
                        <path d="M12.0809097,4.63269804 C12.1244399,3.69268549 11.3972296,2.8945568 10.4574895,2.85032993 C9.51518877,2.80610307 8.71628164,3.53265071 8.67019084,4.47266327 C8.63434245,5.23500144 9.1054928,5.9035173 9.78917295,6.15302838 L9.43068898,13.7219573 L10.4549289,13.7700189 L10.8108523,6.20108995 C11.5124566,6.0165131 12.0450613,5.39503621 12.0809097,4.63269804" id="Fill-90"></path>
                        <path d="M5.90986428,2.42518963 C6.30675725,1.57209692 5.93803088,0.557946853 5.08279056,0.16016074 C4.23011083,-0.237625373 3.21355272,0.131017028 2.81409915,0.984109739 C2.49146358,1.6756338 2.67326617,2.47299555 3.20843152,2.9620475 L-3.44856592e-12,9.82897088 L0.929497719,10.2610136 L4.13792924,3.3943459 C4.85745778,3.48995773 5.58466811,3.11671369 5.90986428,2.42518963" id="Fill-91"></path>
                    </g>
                    <path d="M1.64902626,3.22791996 L4.97156687e-12,4.54552255 C4.66029159,9.63135605 12.6647265,14.5694258 21.5730531,18.4031023 L20.9815546,14.4763705 L1.64902626,3.22791996" id="Fill-9" fill="#126A71"></path>
                    <path d="M32.5477838,22.4167539 C48.8408801,27.3637713 65.2364005,27.9302842 68.3014384,19.5642491 C68.7956342,18.2123899 69.2078908,16.8500492 69.5407687,15.4831068 L45.3072524,15.6267802 L32.5477838,22.4167539" id="Fill-10" fill="#126A71"></path>
                </g>
                <g id="man" transform="translate(99.8863, 82.8842) rotate(-17) translate(-99.8863, -82.8842)translate(74.1516, 65.3179)">
                    <path d="M18.9676899,5.53754175 C19.0880381,2.36292225 21.7613043,-0.114293325 24.9415692,0.00407105196 C28.1218341,0.122691075 30.6030553,2.79215289 30.4827071,5.9667724 C30.3649195,9.1413919 27.6916533,11.6188631 24.5113884,11.5002431 C21.3311235,11.3816231 18.8499023,8.71216126 18.9676899,5.53754175" id="Fill-128" fill="#006D73"></path>
                    <path d="M28.9719532,7.61748251 C26.2628387,8.39336994 22.8137108,6.62736322 22.8137108,6.62736322 C25.1848262,11.8008835 28.9719532,7.61748251 28.9719532,7.61748251" id="Fill-129" fill="#FFFFFE"></path>
                    <path d="M30.1575109,12.44 L46.9755303,8.21160521 C47.6208014,8.04978091 47.5414228,6.61406959 47.1419692,5.51299968 L50.8932479,4.57017501 C51.3003833,4.46766072 51.5487615,4.05428017 51.4463375,3.64703513 C51.3413529,3.23979009 50.9290963,2.99257983 50.5194003,3.09534976 L43.9360983,4.75091716 L43.8720833,4.774181 L30.6235401,8.10423364 C29.7939058,10.193122 27.8913801,11.7379944 25.5458707,12.0401687 C25.1976292,12.0849069 24.8417058,12.100757 24.488343,12.087719 C22.793226,12.0245743 21.2261389,11.3062073 20.0713084,10.0647874 C19.7205062,9.6871974 19.4209161,9.27483943 19.1750985,8.83640551 L18.7167511,8.77965196 C18.5042213,8.72852264 18.276328,8.70986044 18.045874,8.73261298 C16.6861955,8.86375969 15.1293508,9.72273227 13.7005362,10.7627027 C12.4279181,11.6906998 11.2526028,12.7628817 10.4076048,13.5911767 C7.14796133,12.3796674 3.35315246,11.3882699 1.46599043,12.4039538 C0.710613493,12.8109432 0.203614737,13.4863615 0.0397363513,14.3062202 C-0.180475229,15.4136813 0.536492708,16.4912317 1.64779301,16.7128773 C2.39804875,16.8621749 3.13294088,16.5827532 3.60153064,16.0433389 C4.76660354,16.0694148 7.61142989,16.8557838 10.1592267,17.8819492 C10.4076048,17.9821627 10.6662254,18.0309912 10.924846,18.0309912 C11.4804962,18.0309912 12.0233433,17.8057665 12.4176757,17.3862505 C13.0706286,16.6919143 13.8362479,15.9645997 14.6069885,15.2971064 C15.070457,14.8934404 15.5364862,14.5140609 15.9820306,14.176863 L14.2817923,27.8393844 C14.2613075,28.0065773 14.2664287,28.170958 14.2843529,28.3309928 C14.2920347,28.7024473 14.3611709,29.0790147 14.5096857,29.4443337 L16.7963013,35.1327263 L28.0731827,29.1746266 L30.1575109,12.44" id="Fill-3" fill="#006D73"></path>
                    <path d="M23.0031951,15.5085262 L23.1004979,15.4466597 L23.3975275,13.8401764 L22.6677566,13.5047681 L21.9379856,13.1691041 L20.9086245,14.440179 L20.9239881,14.5544531 C21.1083513,14.9425246 21.4207445,15.2367738 21.7894709,15.4072901 C22.1607578,15.5772951 22.5858174,15.6210107 23.0031951,15.5085262" id="Fill-4" fill="#FFFFFE"></path>
                    <path d="M20.4861256,15.3444011 C20.4656408,15.480405 20.4502772,15.8871388 20.432353,16.0226315 C17.5363146,19.1803783 15.2189718,20.7646203 12.4996149,22.7617316 C12.5047361,24.0893044 11.7493591,26.6516503 11.7493591,26.6516503 C11.7493591,26.6516503 14.4892009,26.0519033 15.8668036,25.7740155 C17.8461472,22.9629254 20.0559448,20.4818752 22.0071218,16.6607254 C22.1453942,16.5610232 22.2836666,16.457742 22.4193784,16.3516487 C21.7382589,16.3271066 20.8599731,16.0277444 20.4861256,15.3444011" id="Fill-5" fill="#FFFFFE"></path>
                </g>
                <g id="machine" transform="translate(84, 99.4982) rotate(-19) translate(-84, -99.4982)translate(21.0058, 24.4361)">
                    <path d="M59.5789898,83.1414244 C59.0259003,84.6538297 57.3487074,85.431251 55.8353929,84.8780317 C54.3195179,84.3248125 53.5410955,82.6510942 54.0941851,81.1386889 C54.6498352,79.6267949 56.3244675,78.8493736 57.8403426,79.4023372 C59.353657,79.9555564 60.1320794,81.6295304 59.5789898,83.1414244" id="Fill-84" fill="#FFFFFE"></path>
                    <path d="M88.1399197,93.5705275 C87.5842696,95.0824215 85.9070767,95.8598428 84.3937622,95.3068792 C82.8804478,94.7539156 82.0994648,93.079686 82.655115,91.567792 C83.2082045,90.0556424 84.8853974,89.2782211 86.3987119,89.8311847 C87.9145869,90.3844039 88.6930093,92.0583779 88.1399197,93.5705275" id="Fill-85" fill="#FFFFFE"></path>
                    <path d="M101.979962,12.1238209 C102.223218,12.2122746 102.494642,12.0867522 102.581702,11.8446548 C102.671323,11.6028131 102.545854,11.3325947 102.302597,11.244141 L100.284844,10.5066005 L101.109358,8.24898537 C102.952989,8.43944209 104.760773,7.37518528 105.426529,5.55907182 C106.212633,3.41317425 105.106454,1.03745037 102.958111,0.252870952 C100.809767,-0.531964116 98.4284096,0.571150972 97.6423055,2.71704855 C96.9765495,4.53316201 97.6704721,6.51058848 99.2017107,7.55209273 L98.374637,9.80970788 L96.3543238,9.07242308 C96.1136274,8.9837137 95.8422038,9.10949183 95.7525828,9.35133352 C95.6655225,9.5931752 95.7909918,9.86339366 96.0342488,9.95184739 L98.0520014,10.6893878 L97.5578057,12.0409914 L95.5374925,11.3037066 C95.2967961,11.2149972 95.0253725,11.3405197 94.9357515,11.5826171 C94.8486911,11.8244587 94.9741605,12.0946772 95.2148569,12.1831309 L97.2351701,12.9206714 L96.7409744,14.2720193 L94.7206611,13.5347345 C94.4774042,13.4462808 94.2085412,13.5718033 94.1189202,13.813645 C94.0292992,14.0557423 94.1547686,14.3259607 94.3980256,14.4144145 L96.4183388,15.1516993 L95.9215824,16.5033029 L93.9038298,15.7660181 C93.6605728,15.6775643 93.3891493,15.8030868 93.3020889,16.0449285 C93.2124679,16.2870258 93.3379373,16.5572443 93.5811942,16.645698 L95.5989469,17.3829828 L95.1047511,18.7345864 L93.0844379,17.9973016 C92.8437415,17.9088479 92.5723179,18.0343704 92.4852575,18.276212 C92.3956365,18.5180537 92.5211059,18.7885278 92.7643629,18.8769816 L94.7821155,19.6142664 L92.6107269,25.5439893 L94.5183738,26.2411376 L96.692323,20.3114146 L98.7100756,21.0486994 C98.9533326,21.1371532 99.2247561,21.0116307 99.3118165,20.769789 C99.4014375,20.5279473 99.2759681,20.2574732 99.0327112,20.1690195 L97.0149585,19.4317347 L97.5091543,18.0801311 L99.5269069,18.8174159 C99.7701639,18.9058696 100.041587,18.7803471 100.128648,18.5385055 C100.218269,18.2966638 100.092799,18.0261897 99.8495425,17.9377359 L97.8317899,17.2004511 L98.3259856,15.8488476 L100.346299,16.5861324 C100.586995,16.6745861 100.858419,16.5493192 100.94804,16.3072219 C101.0351,16.0653802 100.909631,15.7949061 100.668934,15.7064524 L98.6486212,14.9691676 L99.142817,13.617564 L101.16313,14.3551045 C101.406387,14.4435582 101.67525,14.3180357 101.764871,14.0759384 C101.854492,13.8340967 101.726462,13.5638782 101.485766,13.4754245 L99.4654525,12.7378841 L99.9622089,11.3865361 L101.979962,12.1238209" id="antenna" fill="#126A71"></path>
                    <path d="M99.4065587,3.36051105 L98.5231518,3.03865197 C99.1325746,1.38180635 100.976206,0.526412816 102.635475,1.13255091 L102.312839,2.01223087 C101.140085,1.58351152 99.8341789,2.18837138 99.4065587,3.36051105" id="Fill-87" fill="#FFFFFE"></path>
                    <path d="M55.284864,130.38236 L55.284864,130.38236 C54.0941851,129.947505 53.4770805,128.619421 53.9123825,127.431176 L63.4122077,101.501196 C63.8475096,100.312695 65.1764609,99.6960757 66.3671398,100.130931 C67.5578187,100.56553 68.1749233,101.893358 67.7396213,103.081859 L58.2423567,129.011583 C57.8070548,130.20034 56.4755429,130.816959 55.284864,130.38236" id="Fill-11" fill="#126A71"></path>
                    <path d="M1.2818147,110.683255 L1.2818147,110.683255 C2.70038698,111.753392 4.7386244,111.470136 5.8089551,110.053598 L27.4383414,81.4735859 C28.5112327,80.0567925 28.2270061,78.0218455 26.8084339,76.9514532 C25.3898616,75.8810609 23.3516242,76.1640617 22.2787329,77.5808551 L0.649346555,106.160867 C-0.420984151,107.57766 -0.139318176,109.612607 1.2818147,110.683255" id="Fill-12" fill="#126A71"></path>
                    <polyline id="Fill-13" fill="#126A71" points="22.2509497 85.9970643 38.6285459 83.9411544 38.1830015 80.4022384 21.8054054 82.4581484 22.2509497 85.9970643"></polyline>
                    <path d="M41.3680042,53.0735493 C48.8808039,32.5635337 71.7059903,21.9805313 92.2496824,29.4819695 C112.793374,36.9836634 123.394257,59.7727685 115.878897,80.2830397 C108.366097,100.7928 33.8526439,73.5838205 41.3680042,53.0735493 Z M94.8896607,22.2793822 C70.3283877,13.3107881 43.134818,25.9185116 34.152234,50.4393667 C25.16965,74.9602218 37.7959675,102.108613 62.3572406,111.077207 C86.9185136,120.045801 114.112083,107.438333 123.094667,82.917478 C132.077251,58.3966228 119.448373,31.2479763 94.8896607,22.2793822 L94.8896607,22.2793822 Z" id="Fill-20" fill="#126A71"></path>
                    <path d="M109.277671,150.1193 L109.277671,150.1193 C107.500615,150.023177 106.125573,148.493643 106.222875,146.720734 L108.166371,110.952707 C108.263673,109.179542 109.794912,107.807487 111.571968,107.903866 C113.346464,107.999989 114.721506,109.529267 114.624203,111.302431 L112.680708,147.070459 C112.583405,148.843624 111.052167,150.215679 109.277671,150.1193" id="Fill-16" fill="#126A71"></path>
                    <polyline id="Fill-17" fill="#126A71" points="110.924137 113.338401 99.7394367 101.217429 102.366612 98.8005457 113.551312 110.921518 110.924137 113.338401"></polyline>
                    <path d="M24.990408,81.4480213 C24.7343481,82.1444026 23.9636075,82.5020522 23.2645638,82.2474282 C22.5680806,81.9930598 22.2095967,81.2222853 22.4656566,80.5261596 C22.719156,79.8297783 23.4924572,79.4721287 24.1889403,79.7267527 C24.8854234,79.9813767 25.2439074,80.7521512 24.990408,81.4480213" id="Fill-14" fill="#FFFFFE"></path>
                    <path d="M24.2273493,81.1701334 C24.1274859,81.4464874 23.8202139,81.5883713 23.5436692,81.4873909 C23.2671244,81.3861548 23.1262914,81.0804015 23.2261548,80.8043031 C23.3285788,80.5279492 23.6332901,80.3858097 23.9098349,80.4870457 C24.1863797,80.5880261 24.3297733,80.8937794 24.2273493,81.1701334" id="Fill-15" fill="#0A0B09"></path>
                    <path d="M110.056093,112.510873 C109.800033,113.206999 110.158517,113.978029 110.855,114.232397 C111.554044,114.487021 112.324785,114.129116 112.580845,113.43299 C112.834344,112.736865 112.47586,111.96609 111.779377,111.711466 C111.082894,111.456842 110.309593,111.814747 110.056093,112.510873" id="Fill-18" fill="#FFFFFE"></path>
                    <path d="M110.816591,112.789016 C110.714167,113.065115 110.857561,113.371124 111.134106,113.472104 C111.41065,113.57334 111.717922,113.431201 111.817786,113.154847 C111.92021,112.878748 111.776816,112.572739 111.500271,112.471759 C111.223727,112.370523 110.919015,112.512662 110.816591,112.789016" id="Fill-19" fill="#126A71"></path>
                </g>
                <g id="clock-middle" transform="translate(95.318, 121.406) rotate(-19) translate(-95.318, -121.406)translate(82.3636, 108.4726)">
                    <path d="M22.1162204,3.78849093 C27.173405,8.84032343 27.173405,17.0289397 22.1136598,22.0792384 C17.0539146,27.1297926 8.85231356,27.1292813 3.7925684,22.0774488 C-1.26461615,17.0263833 -1.26461615,8.83776697 3.795129,3.78772399 C8.85487416,-1.26308593 17.0564752,-1.26231899 22.1162204,3.78849093" id="Fill-21" fill="#126A71"></path>
                    <path d="M23.6884287,16.8525436 C21.5196007,22.7707624 14.9567834,25.8132126 9.02899495,23.6486529 C3.10376706,21.4843487 0.054092731,14.9321263 2.22292074,9.01390747 C4.39174875,3.09594428 10.954566,0.0534940733 16.8797939,2.21779821 C22.8075823,4.38235799 25.8572567,10.934836 23.6884287,16.8525436" id="Fill-22" fill="#FFFFFE"></path>
                    <polyline id="Fill-23" fill="#0A0B09" points="16.1064927 5.30703174 15.4765852 5.07669416 16.6749459 1.80595153 17.3048534 2.03654477 16.1064927 5.30703174"></polyline>
                    <polyline id="Fill-24" fill="#0A0B09" points="9.23640353 24.0612665 8.60393538 23.8309289 9.80229608 20.5601863 10.4347642 20.7907795 9.23640353 24.0612665"></polyline>
                    <polyline id="Fill-25" fill="#0A0B09" points="11.6126401 3.30685273 10.9494448 3.42266064 10.6191274 1.53880083 11.2823228 1.42299292 11.6126401 3.30685273"></polyline>
                    <polyline id="Fill-26" fill="#0A0B09" points="15.2896614 24.3281615 14.6290267 24.4437138 14.2987093 22.5606209 14.9619046 22.4445574 15.2896614 24.3281615"></polyline>
                    <polyline id="Fill-27" fill="#0A0B09" points="6.97027273 5.26663958 6.45559217 5.69765975 5.22650428 4.23075955 5.74118483 3.80050632 6.97027273 5.26663958"></polyline>
                    <polyline id="Fill-28" fill="#0A0B09" points="20.6848451 21.6354359 20.167604 22.066456 18.9385161 20.6000671 19.4557572 20.1693026 20.6848451 21.6354359"></polyline>
                    <polyline id="Fill-29" fill="#0A0B09" points="3.31373625 14.2746033 3.42896324 14.9362167 1.5418012 15.2654895 1.42657421 14.6036204 3.31373625 14.2746033"></polyline>
                    <polyline id="Fill-30" fill="#0A0B09" points="24.3669876 10.6019842 24.4847752 11.2633419 22.5976132 11.5928704 22.4823862 10.931257 24.3669876 10.6019842"></polyline>
                    <polyline id="Fill-31" fill="#0A0B09" points="5.27515568 18.9081979 5.70789704 19.4235815 4.23811277 20.6501739 3.807932 20.135046 5.27515568 18.9081979"></polyline>
                    <polyline id="Fill-32" fill="#0A0B09" points="21.670676 5.21653285 22.1034174 5.73242769 20.6336331 6.95927573 20.2034524 6.44414783 21.670676 5.21653285"></polyline>
                    <polyline id="Fill-33" fill="#0A0B09" points="5.31612527 9.78647151 5.08567129 10.4171517 1.80810358 9.22098122 2.04111816 8.5905567 5.31612527 9.78647151"></polyline>
                    <polyline id="Fill-34" fill="#0A0B09" points="24.1006852 16.6459811 23.8702313 17.2766613 20.5952241 16.0807465 20.8256781 15.450322 24.1006852 16.6459811"></polyline>
                    <polyline id="Fill-35" fill="#0A0B09" points="11.6382461 11.5269136 12.5446984 11.0442528 16.5699613 18.5666541 15.6660696 19.0495705 11.6382461 11.5269136"></polyline>
                    <polyline id="Fill-36" fill="#0A0B09" points="12.9748792 10.8113587 13.7072107 10.9563104 11.6843369 21.1829414 10.9520054 21.038501 12.9748792 10.8113587"></polyline>
                </g>
                <g id="clock-left" transform="translate(64.9188, 120.4879) rotate(-19) translate(-64.9188, -120.4879)translate(51.6201, 107.2111)">
                    <path d="M26.0791864,16.9367243 C24.053752,23.9841342 16.6894671,28.0573515 9.63245407,26.0351869 C2.57288049,24.0135335 -1.50615495,16.6631824 0.519279468,9.61577255 C2.54471389,2.5696409 9.90643825,-1.50332076 16.9660118,0.51807692 C24.0230248,2.5394746 28.1020603,9.89008135 26.0791864,16.9367243" id="Fill-37" fill="#126A71"></path>
                    <path d="M24.3149332,17.2989755 C22.089772,23.3731388 15.352834,26.4953507 9.2714095,24.2740374 C3.18742444,22.0527241 0.0583715086,15.3284515 2.28353271,9.25428825 C4.50869392,3.18089193 11.2456319,0.0581686826 17.3270564,2.27948201 C23.4110415,4.50079533 26.5400944,11.2255792 24.3149332,17.2989755" id="Fill-38" fill="#FFFFFE"></path>
                    <polyline id="Fill-39" fill="#0A0B09" points="16.5332705 5.45001117 15.8854387 5.21328241 17.1145266 1.85664253 17.7623584 2.09337128 16.5332705 5.45001117"></polyline>
                    <polyline id="Fill-40" fill="#0A0B09" points="9.48137869 24.6976438 8.83354694 24.4609151 10.0651954 21.1042752 10.7130272 21.3410039 9.48137869 24.6976438"></polyline>
                    <polyline id="Fill-41" fill="#0A0B09" points="11.9216303 3.39716895 11.2405107 3.51578898 10.9025116 1.58233372 11.5810705 1.46345805 11.9216303 3.39716895"></polyline>
                    <polyline id="Fill-42" fill="#0A0B09" points="15.6959543 24.9714413 15.0148348 25.090317 14.6768356 23.1573731 15.3579552 23.0384974 15.6959543 24.9714413"></polyline>
                    <polyline id="Fill-43" fill="#0A0B09" points="7.15635409 5.40859642 6.62630993 5.85060939 5.36649485 4.3453622 5.896539 3.90386052 7.15635409 5.40859642"></polyline>
                    <polyline id="Fill-44" fill="#0A0B09" points="21.2319711 22.2079016 20.7019269 22.6501702 19.4421118 21.1451787 19.9695954 20.7031657 21.2319711 22.2079016"></polyline>
                    <polyline id="Fill-45" fill="#0A0B09" points="3.40251482 14.6532888 3.52286301 15.3322862 1.58448898 15.670251 1.46670139 14.990998 3.40251482 14.6532888"></polyline>
                    <polyline id="Fill-46" fill="#0A0B09" points="25.0114163 10.8840353 25.1317645 11.5630327 23.1959511 11.9009975 23.0756029 11.2220001 25.0114163 10.8840353"></polyline>
                    <polyline id="Fill-47" fill="#0A0B09" points="5.41770684 19.4088269 5.8606906 19.9377597 4.35249733 21.1965636 3.90951357 20.6678864 5.41770684 19.4088269"></polyline>
                    <polyline id="Fill-48" fill="#0A0B09" points="22.2459686 5.3574671 22.6889523 5.88639992 21.1807591 7.14545943 20.7377753 6.6170379 22.2459686 5.3574671"></polyline>
                    <polyline id="Fill-49" fill="#0A0B09" points="5.45867644 10.047304 5.22054066 10.6946012 1.85847315 9.46698622 2.09660893 8.81968903 5.45867644 10.047304"></polyline>
                    <polyline id="Fill-50" fill="#0A0B09" points="24.7374322 17.0873001 24.501857 17.7345973 21.1397895 16.5069824 21.3753646 15.8599408 24.7374322 17.0873001"></polyline>
                    <polyline id="Fill-51" fill="#0A0B09" points="11.7142217 14.4584861 11.3224499 13.4831943 19.4625966 10.2277905 19.8543684 11.2035936 11.7142217 14.4584861"></polyline>
                    <polyline id="Fill-52" fill="#0A0B09" points="14.5411238 15.0659025 13.8420801 15.3788139 9.46345449 5.61388064 10.1624982 5.3009692 14.5411238 15.0659025"></polyline>
                </g>
                <g id="clock-right" transform="translate(125.8498, 121.6455) rotate(-19) translate(-125.8498, -121.6455)translate(112.5517, 108.3684)">
                    <path d="M17.0607805,26.0077587 C10.0191311,28.0828422 2.62411893,24.0648446 0.547472513,17.0337961 C-1.53173451,10.0027476 2.49352834,2.62146322 9.53517773,0.546124108 C16.5768271,-1.52844807 23.9718393,2.48903828 26.0484857,9.51983113 C28.1276927,16.5511353 24.1049905,23.9329309 17.0607805,26.0077587" id="Fill-53" fill="#126A71"></path>
                    <path d="M24.3149596,17.2994129 C22.0897984,23.3735761 15.3528604,26.4957881 9.26887535,24.2744748 C3.18745088,22.0531614 0.0583979553,15.3286332 2.28355916,9.25472561 C4.50872037,3.18107363 11.2456584,0.0586060376 17.3270828,2.27966372 C23.4110679,4.50123269 26.5401208,11.2260166 24.3149596,17.2994129" id="Fill-54" fill="#FFFFFE"></path>
                    <polyline id="Fill-55" fill="#0A0B09" points="16.5332969 5.45044852 15.8854652 5.21371977 17.1145531 1.85707988 17.7623848 2.09380864 16.5332969 5.45044852"></polyline>
                    <polyline id="Fill-56" fill="#0A0B09" points="9.48140513 24.6980812 8.83357339 24.4613524 10.0626613 21.1047125 10.7130536 21.3414413 9.48140513 24.6980812"></polyline>
                    <polyline id="Fill-57" fill="#0A0B09" points="11.9216567 3.39760631 11.2405372 3.51622633 10.902538 1.58277108 11.5810969 1.46389541 11.9216567 3.39760631"></polyline>
                    <polyline id="Fill-58" fill="#0A0B09" points="15.6959808 24.9718787 15.0148612 25.0904987 14.6768621 23.1575548 15.3579816 23.0389347 15.6959808 24.9718787"></polyline>
                    <polyline id="Fill-59" fill="#0A0B09" points="7.15638054 5.92032698 6.62633638 6.36233995 5.36652129 4.85709276 5.89656545 4.41559108 7.15638054 5.92032698"></polyline>
                    <polyline id="Fill-60" fill="#0A0B09" points="21.2319975 22.2083389 20.7019534 22.6503519 19.4395777 21.145616 19.9696218 20.703603 21.2319975 22.2083389"></polyline>
                    <polyline id="Fill-61" fill="#0A0B09" points="3.40254126 14.6537262 3.52032885 15.3327236 1.58451542 15.6706884 1.46672783 14.9914354 3.40254126 14.6537262"></polyline>
                    <polyline id="Fill-62" fill="#0A0B09" points="25.0114428 10.8844727 25.131791 11.5632144 23.1934169 11.9014349 23.0756293 11.2224375 25.0114428 10.8844727"></polyline>
                    <polyline id="Fill-63" fill="#0A0B09" points="5.41773329 19.4092643 5.86071705 19.9381971 4.35252378 21.197001 3.90954002 20.6683238 5.41773329 19.4092643"></polyline>
                    <polyline id="Fill-64" fill="#0A0B09" points="22.2434344 5.3576488 22.6889788 5.88683727 21.1782249 7.14589679 20.7378017 6.61747526 22.2434344 5.3576488"></polyline>
                    <polyline id="Fill-65" fill="#0A0B09" points="5.45870288 10.0474857 5.2205671 10.6947829 1.8584996 9.46716793 2.09663538 8.81987074 5.45870288 10.0474857"></polyline>
                    <polyline id="Fill-66" fill="#0A0B09" points="24.7374586 17.0877375 24.4993228 17.7350347 21.1398159 16.5074197 21.3753911 15.8603782 24.7374586 17.0877375"></polyline>
                    <polyline id="Fill-67" fill="#0A0B09" points="15.1326488 14.0204896 14.4976201 14.8592661 7.49694031 9.58732183 8.13196905 8.74828969 15.1326488 14.0204896"></polyline>
                    <polyline id="Fill-68" fill="#0A0B09" points="12.0138383 11.5166867 12.7077609 11.1881809 17.3091586 20.8503442 16.6152361 21.1793614 12.0138383 11.5166867"></polyline>
                </g>
                <g id="cog-left" transform="translate(79.7584, 136.9536) rotate(-19) translate(-79.7584, -136.9536)translate(70.0038, 127.215)">
                    <path d="M18.9125693,13.0830098 C17.0638163,18.1327971 11.4637845,20.729144 6.40403939,18.8820973 C1.34685483,17.0350506 -1.25471454,11.444315 0.596599097,6.39452771 C2.44535214,1.34448474 8.04538385,-1.2521178 13.105129,0.595184548 C18.1623136,2.44223125 20.7638829,8.03296679 18.9125693,13.0830098" id="Fill-69" fill="#126A71"></path>
                    <path d="M8.30400442,13.6947721 C6.04811602,12.8705674 4.86767952,10.4311876 5.66658665,8.24617605 C6.46805438,6.06116455 8.94671497,4.95779381 11.2026034,5.7822541 C13.4610524,6.60671439 14.6414889,9.04609427 13.8425817,11.2311058 C13.041114,13.4158616 10.5624534,14.5189767 8.30400442,13.6947721 Z M15.658047,12.3925083 L15.978122,11.5133396 L15.0230182,11.1641264 C15.0614272,11.0189191 15.094715,10.8737118 15.120321,10.7279933 L16.1291973,10.8259059 L16.2060153,9.890495 L15.197139,9.79334929 C15.1945784,9.64328473 15.1868966,9.49373147 15.171533,9.3452008 L16.1676063,9.18491038 L15.9934856,8.25768015 L14.9948516,8.41822622 C14.953882,8.27327459 14.9077912,8.1301125 14.8540187,7.98925122 L15.7707134,7.58175053 L15.3558962,6.72584571 L14.4392015,7.13309075 C14.3623835,7.00296663 14.2778837,6.87616591 14.1908233,6.7526886 L14.9615638,6.12584314 L14.3367775,5.3987842 L13.566037,6.02511837 C13.4559312,5.91851374 13.3432648,5.81548816 13.2254772,5.71731987 L13.7964909,4.91586777 L13.002705,4.3680171 L12.4291307,5.17125872 C12.2959795,5.09609862 12.1602677,5.02528451 12.0194347,4.96009463 L12.3599945,4.03465393 L11.4509815,3.70282464 L11.1104218,4.62826534 C10.961907,4.58787318 10.8133922,4.55387218 10.6623168,4.5260067 L10.7416954,3.54202293 L9.7814705,3.44922321 L9.7020919,4.43116181 C9.54845592,4.42962793 9.39481993,4.43576345 9.24374454,4.44675625 L9.05938136,3.47172011 L8.10939884,3.62434114 L8.29632262,4.60014422 C8.14780784,4.63772427 8.00185365,4.68041725 7.85846006,4.7295014 L7.4231581,3.82885842 L6.55255418,4.21565173 L6.98785614,5.116806 C6.85726555,5.18992093 6.72923556,5.26917137 6.60376617,5.3532791 L5.94313143,4.58812882 L5.21079989,5.18352976 L5.86887404,5.94816875 C5.76132885,6.05221691 5.65890486,6.16061107 5.55904146,6.27411817 L4.72684654,5.69865766 L4.18143878,6.46201842 L5.01619431,7.03875715 C4.94193692,7.16658045 4.87280072,7.29798281 4.80622513,7.43373115 L3.85112141,7.08451789 L3.52848584,7.96368656 L4.48615016,8.31289982 C4.44774116,8.45785144 4.41445336,8.60331436 4.38884737,8.74903292 L3.37741045,8.65137592 L3.30315306,9.58627554 L4.31202937,9.68393254 C4.31202937,9.8339971 4.32227177,9.98329471 4.33763537,10.1318254 L3.33900146,10.2921158 L3.51568284,11.219346 L4.51175616,11.0590556 C4.55528635,11.2037516 4.60137715,11.3469137 4.65514974,11.487775 L3.73845502,11.89502 L4.15327219,12.7514361 L5.06996691,12.3439354 C5.1467849,12.4740596 5.23128469,12.6006046 5.31834509,12.7243376 L4.54760455,13.3514387 L5.1723909,14.0779863 L5.94313143,13.4519078 C6.05323722,13.5582568 6.16590361,13.661538 6.2836912,13.7594507 L5.71011685,14.5611584 L6.50390278,15.1092647 L7.08003773,14.3057675 C7.21318892,14.3811832 7.34890071,14.451486 7.4897337,14.5169316 L7.14917393,15.4423723 L8.05818685,15.7739459 L8.39618602,14.8485052 C8.5472614,14.889153 8.69577619,14.923154 8.84685158,14.9507638 L8.76747298,15.9350033 L9.7276979,16.0275473 L9.80707649,15.0456087 C9.96071248,15.0473983 10.1143485,15.0412627 10.2654239,15.0302699 L10.449787,16.0050504 L11.397209,15.8529407 L11.2128458,14.8766263 C11.3613606,14.8395576 11.5073147,14.7968646 11.6507083,14.7472691 L12.0860103,15.6484234 L12.9566142,15.2611188 L12.5213123,14.3602202 C12.6519028,14.2871053 12.7799328,14.2078548 12.9054022,14.1237471 L13.5634764,14.8886417 L14.2983685,14.2932408 L13.6402944,13.5291131 C13.7452789,13.4248093 13.8502635,13.3166708 13.9475663,13.202908 L14.7823219,13.7781129 L15.3277296,13.0147521 L14.4929741,12.438269 C14.5672315,12.3104457 14.6363677,12.1790434 14.7003827,12.043295 L15.658047,12.3925083 L15.658047,12.3925083 Z" id="Fill-70" fill="#FFFFFE"></path>
                    <path d="M9.42298653,7.418648 C9.21813854,7.97570195 9.52028932,8.59743448 10.0964243,8.80757599 C10.6699986,9.0177175 11.3024668,8.73676188 11.5073147,8.17970794 C11.7096021,7.62265399 11.410012,7.00092145 10.833877,6.7905243 C10.2577421,6.58063844 9.62783451,6.8618497 9.42298653,7.418648" id="Fill-71" fill="#E5E5E0"></path>
                    <path d="M10.0861819,12.0583782 C10.2884693,11.5013242 9.98887908,10.8795917 9.41274413,10.6691945 C8.83660918,10.4593087 8.20670163,10.7405199 8.00185365,11.2973182 C7.79700567,11.8543722 8.09915644,12.4763604 8.67529139,12.6862462 C9.24886574,12.8963877 9.88133389,12.6154321 10.0861819,12.0583782" id="Fill-72" fill="#FFFFFE"></path>
                    <path d="M8.79307898,9.38738248 C8.99536636,8.83032854 8.69577619,8.208596 8.11964124,7.9984545 C7.54350629,7.78831299 6.91359875,8.06952425 6.70875076,8.62632255 C6.50390278,9.1833765 6.80605356,9.80510903 7.3821885,10.0155062 C7.95576285,10.225392 8.588231,9.94418078 8.79307898,9.38738248" id="Fill-73" fill="#FFFFFE"></path>
                    <path d="M12.1269799,9.46177565 C11.5508449,9.25137849 10.9209374,9.5328454 10.7160894,10.0896437 C10.5112414,10.646442 10.8133922,11.2684302 11.3895272,11.4785717 C11.9631015,11.6887132 12.5955696,11.4075019 12.8004176,10.850448 C13.002705,10.2936497 12.7031148,9.67166151 12.1269799,9.46177565" id="Fill-74" fill="#FFFFFE"></path>
                </g>
                <g id="cog-right" transform="translate(110.3944, 137.5357) rotate(-19) translate(-110.3944, -137.5357)translate(100.6398, 127.7971)">
                    <path d="M18.914078,13.0829101 C17.0627643,18.1326974 11.4627326,20.7290443 6.40554806,18.8819976 C1.3458029,17.0349509 -1.25320587,11.4442154 0.595547165,6.39417238 C2.4468608,1.34438505 8.04689251,-1.25196184 13.1040771,0.595084862 C18.1612616,2.44213156 20.762831,8.0328671 18.914078,13.0829101" id="Fill-75" fill="#126A71"></path>
                    <path d="M8.30551309,13.694928 C6.04706409,12.8704678 4.86662759,10.4308322 5.66809532,8.24582072 C6.46700245,6.06080921 8.94566304,4.95794977 11.204112,5.78241006 C13.462561,6.60661471 14.6429975,9.04599459 13.8415298,11.2310061 C13.0400621,13.4160176 10.5614015,14.518877 8.30551309,13.694928 Z M15.656995,12.3924086 L15.9796306,11.5132399 L15.0245269,11.1640267 C15.0629359,11.0190751 15.0936631,10.8738678 15.1192691,10.7278936 L16.130706,10.8258062 L16.207524,9.89065096 L15.1986477,9.7932496 C15.1960871,9.64318505 15.1858447,9.49363179 15.1730417,9.34510111 L16.169115,9.18481069 L15.9924336,8.25758046 L14.9963603,8.41812653 C14.9553907,8.27343055 14.9092999,8.13001281 14.8555273,7.98915153 L15.7696614,7.5819065 L15.3548443,6.72574603 L14.4407102,7.13324671 C14.3613316,7.00312259 14.2793924,6.87632187 14.1897714,6.75258892 L14.9605119,6.12574345 L14.3357256,5.39894016 L13.564985,6.02527434 C13.4574398,5.9186697 13.3422129,5.81538848 13.2244253,5.71747583 L13.7979996,4.91576808 L13.0042137,4.36791741 L12.4280787,5.17141468 C12.2974881,5.09599894 12.1617764,5.02544048 12.0209434,4.96025059 L12.3589425,4.03480989 L11.4499296,3.7029806 L11.1119304,4.6284213 C10.9634157,4.58777349 10.8123403,4.55402814 10.6612649,4.52616266 L10.7432041,3.54217889 L9.78297916,3.44937917 L9.70103997,4.43106213 C9.54740398,4.42978389 9.3963286,4.43566376 9.24269261,4.44691221 L9.05832943,3.47162043 L8.11090751,3.62424145 L8.29527069,4.60030018 C8.14675591,4.63762458 8.00080172,4.68031756 7.85740813,4.72940171 L7.42210617,3.82875873 L6.55150224,4.21580769 L6.98936481,5.11670631 C6.85621362,5.18982124 6.72818363,5.26932733 6.60271424,5.35343507 L5.9446401,4.58828479 L5.21230856,5.18368572 L5.8703827,5.94806906 C5.76283751,6.05211723 5.65785292,6.16025574 5.56055013,6.27401848 L4.7257946,5.69855798 L4.18038685,6.46217438 L5.01514238,7.03891311 C4.94088499,7.16648077 4.87174879,7.29788312 4.8077338,7.43388711 L3.85263008,7.08441821 L3.52999451,7.96384252 L4.48509823,8.31280013 C4.44668923,8.45775175 4.41596203,8.60347032 4.39035603,8.74893323 L3.37891912,8.65127623 L3.30210113,9.58617586 L4.31097744,9.68383286 C4.31353804,9.83389741 4.32121984,9.98319503 4.33658344,10.1317257 L3.34051013,10.2920161 L3.51463091,11.2192463 L4.51326482,11.0589559 C4.55423442,11.2039076 4.60032522,11.346814 4.65409781,11.4876753 L3.73996369,11.895176 L4.15222025,12.7513364 L5.06891497,12.3440914 C5.14573297,12.4739599 5.23023276,12.6005049 5.31985375,12.7244935 L4.54655262,13.351339 L5.17389957,14.0781423 L5.9446401,13.4518081 C6.05218529,13.5584128 6.16485168,13.661694 6.28519987,13.7596066 L5.71162552,14.5610587 L6.50541145,15.109165 L7.0789858,14.3056678 C7.21213699,14.3810835 7.34784878,14.451642 7.48868176,14.5170875 L7.15068259,15.4425282 L8.05713491,15.7741019 L8.39769468,14.8484055 C8.54620947,14.889309 8.69728486,14.9230543 8.84579964,14.9509198 L8.76642105,15.9349036 L9.72664597,16.0277033 L9.80602456,15.0457647 C9.96222115,15.0472986 10.1132965,15.041163 10.2669325,15.0299146 L10.4512957,16.0052064 L11.3987176,15.852841 L11.2143544,14.8767823 C11.3603086,14.8394579 11.5062628,14.7965093 11.6496564,14.7474251 L12.087519,15.6483237 L12.9581229,15.2612748 L12.5202603,14.3601205 C12.6534115,14.2870056 12.7814415,14.2077551 12.9069109,14.1236474 L13.564985,14.8887977 L14.2973166,14.2933967 L13.6392424,13.5290134 C13.7467876,13.4247096 13.8492116,13.3165711 13.949075,13.203064 L14.7812699,13.7782688 L15.3292383,13.0149081 L14.4919222,12.438425 C14.5687401,12.3106017 14.6378763,12.1789437 14.7018913,12.043451 L15.656995,12.3924086 L15.656995,12.3924086 Z" id="Fill-76" fill="#FFFFFE"></path>
                    <path d="M9.42193459,7.41880396 C9.21964721,7.97585791 9.51923739,8.5973348 10.0953723,8.80773195 C10.6715073,9.01787346 11.3039754,8.73640655 11.5062628,8.1798639 C11.7111108,7.62280995 11.40896,7.00082177 10.8353857,6.79068026 C10.2592507,6.5807944 9.62678258,6.86175002 9.42193459,7.41880396" id="Fill-77" fill="#E5E5E0"></path>
                    <path d="M10.0851299,12.0582785 C10.2899779,11.5014802 9.98782714,10.879492 9.41425279,10.6693505 C8.83811784,10.459209 8.2056497,10.7404203 8.00336232,11.2974742 C7.79851434,11.8545282 8.09810451,12.4762607 8.67423946,12.6861466 C9.25037441,12.8965437 9.88284255,12.6153324 10.0851299,12.0582785" id="Fill-78" fill="#FFFFFE"></path>
                    <path d="M8.79202705,9.3872828 C8.99687503,8.83022885 8.69472426,8.20849632 8.12114991,7.99861046 C7.54501496,7.7882133 6.91254681,8.06942457 6.71025943,8.62647851 C6.50541145,9.18327681 6.80500162,9.80526499 7.38113657,10.0154065 C7.95727152,10.2252924 8.58973967,9.94433674 8.79202705,9.3872828" id="Fill-79" fill="#FFFFFE"></path>
                    <path d="M12.1284886,9.46167596 C11.5523536,9.25153445 10.9198855,9.53249007 10.7175981,10.089544 C10.5127501,10.646598 10.8123403,11.2685861 11.3884752,11.4787277 C11.9646102,11.6886135 12.5970783,11.4074022 12.7993657,10.8506039 C13.0042137,10.29355 12.7020629,9.67156182 12.1284886,9.46167596" id="Fill-80" fill="#FFFFFE"></path>
                </g>
                <g id="zaps" transform="translate(86.8519, 10.4237) rotate(-19) translate(-86.8519, -10.4237)translate(77.7784, 2.5236)" fill="#126A71">
                    <polyline id="Fill-81" points="12.2729547 13.4958398 10.3806715 6.18281307 7.9967531 8.22926412 5.29019914 0.502345573 6.71389261 -1.39105829e-12 8.50631246 6.49572451 11.3076086 4.41373858 12.6032721 13.3953707 12.2729547 13.4958398"></polyline>
                    <polyline id="Fill-82" points="15.3175079 13.5717668 15.0332813 13.5070882 16.7232771 7.34574946 14.1089048 7.84707245 15.3764017 1.0384365 16.6336561 1.26826279 15.2125233 6.78843987 18.1469706 6.43462497 15.3175079 13.5717668"></polyline>
                    <polyline id="Fill-83" points="9.91976353 15.8002382 5.87145529 10.9807885 4.81136698 13.3736407 1.9272453e-12 8.5357844 0.891088722 7.64741245 4.5732312 11.8880783 5.93034908 9.31934123 10.1322933 15.6082476 9.91976353 15.8002382"></polyline>
                </g>
            </g>
        </g>
    </g>
</svg>